<?xml version="1.0" encoding="utf-8"?>
<svg viewBox="0 0 3000 3000" style="enable-background:new 0 0 3000 3000;"
	xmlns="http://www.w3.org/2000/svg">
	<defs>
		<style type="text/css">
	.st0{fill:none;stroke:#84C5F0;stroke-width:55;stroke-linecap:round;stroke-linejoin:round;stroke-miterlimit:10;}
	.st1{fill:none;}
	.st2{fill:#84C5F0;}
		</style>
	</defs>
	<g id="Layer_6" transform="matrix(0.9999999999999999, 0, 0, 0.9999999999999999, 0, -5.684341886080802e-14)">
		<g id="Layer_3">
			<g id="Layer_1">
				<path class="st0" d="M1817.74,1441.48c0,0-181.99-1.21-474.63-1.21c-171.36,0-395.61,26.85-533.91-141.6&#10;&#9;&#9;&#9;&#9;c-85.88-104.6-179.46-332.67,47.4-590.82c240.79-274.01,826.67-292.96,1117.17-65.2C2176.28,801.43,2285,984.37,2285,1218.9&#10;&#9;&#9;&#9;&#9;c0,306.96-163.69,529.84-382.02,548.52c-168.68,14.43-366.97-96.37-355.54-325.94c2.55-51.31,17.55-116.97,61.67-175.73&#10;&#9;&#9;&#9;&#9;c52.34-69.71,166.92-151.87,166.92-151.87"/>
				<g id="Layer_2">
					<path class="st0" d="M1176.94,1441.48c0,0-168-39.78-198.47-247.73c-13.09-89.38-5.02-214.67,180.12-349.36"/>
				</g>
				<path class="st0" d="M1301.49,496.05c105.63-8.41,209.79-4.43,277.98,87.24c50.22,67.51,95.57,179.92-3.03,306.87&#10;&#9;&#9;&#9;&#9;c-41.43,53.34-196.04,205.75-196.04,205.75"/>
			</g>
			<g id="Layer_4">
				<ellipse class="st0" cx="1214.49" cy="797.57" rx="73.27" ry="72.44"/>
				<ellipse class="st0" cx="1327.92" cy="1146.46" rx="73.27" ry="72.44"/>
				<ellipse class="st0" cx="1829.72" cy="1064.6" rx="73.27" ry="72.44"/>
				<ellipse class="st0" cx="1891" cy="1441.48" rx="73.27" ry="72.44"/>
			</g>
		</g>
	</g>
	<g id="Layer_7" transform="matrix(0.9999999999999999, 0, 0, 0.9999999999999999, 3, -5.684341886080802e-14)">
		<rect x="49.16" y="1954.24" class="st1" width="2901.69" height="520"/>
		<path d="M 665.454 2369.29 L 629.958 2266.077 L 483.057 2266.077 L 448.107 2369.29 L 373.837 2369.29 L 516.915 1977.736 L 596.646 1977.736 L 739.724 2369.29 Z M 578.078 2105.524 Q 575.894 2097.878 571.525 2084.772 Q 567.156 2071.666 563.061 2057.74 Q 558.965 2043.814 556.781 2034.531 Q 554.05 2045.453 549.954 2059.651 Q 545.859 2073.85 542.309 2086.41 Q 538.759 2098.971 536.575 2105.524 L 502.171 2206.006 L 611.937 2206.006 Z M 923.067 2369.29 L 759.237 2369.29 L 759.237 2329.425 L 806.201 2311.95 L 806.201 2037.261 L 759.237 2019.24 L 759.237 1979.375 L 923.067 1979.375 L 923.067 2019.24 L 876.102 2037.261 L 876.102 2311.95 L 923.067 2329.425 Z M 1403.723 2173.786 Q 1403.723 2198.907 1397.716 2223.481 Q 1391.709 2248.056 1379.422 2267.715 Q 1367.134 2287.375 1349.113 2299.116 Q 1331.092 2310.857 1306.517 2310.857 Q 1284.127 2310.857 1269.109 2299.662 Q 1254.092 2288.467 1249.177 2271.538 L 1245.9 2271.538 Q 1234.978 2287.921 1216.411 2299.389 Q 1197.843 2310.857 1171.084 2310.857 Q 1125.212 2310.857 1100.091 2282.187 Q 1074.971 2253.517 1074.971 2207.098 Q 1074.971 2170.51 1090.262 2142.659 Q 1105.552 2114.807 1133.404 2098.697 Q 1161.255 2082.588 1198.936 2082.588 Q 1224.056 2082.588 1249.996 2086.956 Q 1275.936 2091.325 1290.134 2096.786 L 1284.673 2208.191 Q 1284.127 2215.29 1284.127 2220.478 Q 1284.127 2225.666 1284.127 2227.304 Q 1284.127 2251.879 1292.046 2260.07 Q 1299.964 2268.262 1309.794 2268.262 Q 1323.992 2268.262 1333.549 2255.155 Q 1343.106 2242.049 1348.021 2220.751 Q 1352.936 2199.453 1352.936 2173.24 Q 1352.936 2125.729 1333.549 2092.417 Q 1314.163 2059.105 1280.851 2041.63 Q 1247.538 2024.155 1204.943 2024.155 Q 1160.162 2024.155 1126.304 2038.353 Q 1092.446 2052.552 1069.237 2077.946 Q 1046.028 2103.339 1034.286 2137.744 Q 1022.545 2172.148 1022.545 2213.105 Q 1022.545 2263.893 1040.84 2299.116 Q 1059.134 2334.34 1094.357 2352.634 Q 1129.581 2370.928 1180.914 2370.928 Q 1213.134 2370.928 1245.9 2363.829 Q 1278.666 2356.73 1305.425 2346.9 L 1305.425 2392.772 Q 1280.304 2403.148 1249.177 2409.701 Q 1218.049 2416.255 1182.006 2416.255 Q 1115.382 2416.255 1068.418 2392.226 Q 1021.453 2368.198 996.332 2323.145 Q 971.212 2278.091 971.212 2214.744 Q 971.212 2164.503 987.322 2121.634 Q 1003.432 2078.765 1034.013 2046.818 Q 1064.595 2014.871 1107.737 1997.123 Q 1150.879 1979.375 1204.397 1979.375 Q 1247.538 1979.375 1284.127 1992.754 Q 1320.716 2006.134 1347.475 2031.527 Q 1374.234 2056.921 1388.978 2092.69 Q 1403.723 2128.46 1403.723 2173.786 Z M 1129.581 2208.191 Q 1129.581 2239.864 1142.687 2254.063 Q 1155.794 2268.262 1177.638 2268.262 Q 1206.035 2268.262 1218.049 2247.237 Q 1230.063 2226.212 1232.248 2192.354 L 1235.524 2129.552 Q 1228.971 2127.914 1220.233 2126.822 Q 1211.496 2125.729 1201.12 2125.729 Q 1174.907 2125.729 1159.07 2137.744 Q 1143.233 2149.758 1136.407 2168.598 Q 1129.581 2187.439 1129.581 2208.191 Z M 1792.42 2231.673 Q 1792.42 2272.084 1775.218 2304.577 Q 1758.016 2337.07 1723.065 2355.911 Q 1688.115 2374.751 1634.597 2374.751 Q 1558.689 2374.751 1519.37 2335.159 Q 1480.051 2295.567 1480.051 2230.581 L 1480.051 1979.375 L 1549.952 1979.375 L 1549.952 2223.481 Q 1549.952 2270.992 1571.796 2293.109 Q 1593.64 2315.226 1636.781 2315.226 Q 1667.363 2315.226 1686.203 2304.85 Q 1705.044 2294.474 1714.055 2273.449 Q 1723.065 2252.425 1723.065 2222.935 L 1723.065 1979.375 L 1792.42 1979.375 Z M 2222.512 2369.29 L 2135.682 2369.29 L 1951.101 2063.474 L 1948.916 2063.474 Q 1950.008 2079.857 1950.828 2097.878 Q 1951.647 2115.9 1952.466 2134.74 Q 1953.285 2153.581 1953.831 2172.694 L 1953.831 2369.29 L 1891.03 2369.29 L 1891.03 1979.375 L 1977.313 1979.375 L 2161.349 2283.006 L 2162.987 2283.006 Q 2162.441 2268.808 2161.895 2250.786 Q 2161.349 2232.765 2160.53 2213.925 Q 2159.711 2195.084 2159.165 2177.609 L 2159.165 1979.375 L 2222.512 1979.375 Z M 2490.1 2032.892 Q 2463.341 2032.892 2442.589 2042.722 Q 2421.837 2052.552 2407.366 2071.119 Q 2392.894 2089.687 2385.522 2115.9 Q 2378.149 2142.112 2378.149 2174.878 Q 2378.149 2219.113 2390.164 2250.513 Q 2402.178 2281.914 2427.025 2298.843 Q 2451.873 2315.772 2489.554 2315.772 Q 2514.674 2315.772 2537.884 2310.584 Q 2561.093 2305.396 2586.76 2296.659 L 2586.76 2356.184 Q 2562.731 2366.013 2538.43 2370.382 Q 2514.128 2374.751 2482.454 2374.751 Q 2422.383 2374.751 2383.064 2349.903 Q 2343.745 2325.056 2324.631 2280.003 Q 2305.518 2234.949 2305.518 2174.332 Q 2305.518 2130.098 2317.805 2093.51 Q 2330.092 2056.921 2353.302 2030.162 Q 2376.511 2003.403 2410.915 1988.658 Q 2445.32 1973.914 2490.1 1973.914 Q 2519.589 1973.914 2548.259 1980.74 Q 2576.93 1987.566 2602.05 1999.58 L 2578.022 2056.921 Q 2557.27 2047.637 2535.153 2040.265 Q 2513.036 2032.892 2490.1 2032.892 Z" style="fill: rgb(132, 197, 240);"/>
	</g>
</svg>