<svg version="1.2" xmlns="http://www.w3.org/2000/svg" viewBox="0 0 1800 1800" width="1800" height="1800">
	<title>logo-white-svg</title>
	<style>
		.s0 { fill: none;stroke: #ffffff;stroke-linecap: round;stroke-linejoin: round;stroke-width: 55 } 
	</style>
	<g id="Layer_3">
		<g id="Layer_1">
			<path id="Layer" fill-rule="evenodd" class="s0" d="m1217.7 1214.3c0 0-182-1.2-474.6-1.2-171.4 0-395.6 26.8-533.9-141.6-85.9-104.6-179.5-332.7 47.4-590.9 240.8-274 826.7-292.9 1117.2-65.2 202.5 158.8 311.2 341.8 311.2 576.3 0 306.9-163.7 529.8-382 548.5-168.7 14.4-367-96.4-355.6-325.9 2.6-51.3 17.6-117 61.7-175.8 52.3-69.7 166.9-151.8 166.9-151.8"/>
			<g id="Layer_2">
				<path id="Layer" fill-rule="evenodd" class="s0" d="m576.9 1214.3c0 0-168-39.8-198.4-247.8-13.1-89.3-5-214.6 180.1-349.3"/>
			</g>
			<path id="Layer" fill-rule="evenodd" class="s0" d="m701.5 268.8c105.6-8.4 209.8-4.4 278 87.3 50.2 67.5 95.5 179.9-3.1 306.9-41.4 53.3-196 205.7-196 205.7"/>
		</g>
		<g id="Layer_4">
			<path id="Layer" class="s0" d="m614.5 642.8c-40.5 0-73.3-32.4-73.3-72.5 0-40 32.8-72.4 73.3-72.4 40.5 0 73.3 32.4 73.3 72.4 0 40.1-32.8 72.5-73.3 72.5z"/>
			<path id="Layer" class="s0" d="m727.9 991.7c-40.5 0-73.2-32.4-73.2-72.5 0-40 32.7-72.4 73.2-72.4 40.5 0 73.3 32.4 73.3 72.4 0 40.1-32.8 72.5-73.3 72.5z"/>
			<path id="Layer" class="s0" d="m1229.7 909.8c-40.5 0-73.3-32.4-73.3-72.4 0-40.1 32.8-72.5 73.3-72.5 40.5 0 73.3 32.4 73.3 72.5 0 40-32.8 72.4-73.3 72.4z"/>
			<path id="Layer" class="s0" d="m1291 1286.7c-40.5 0-73.3-32.4-73.3-72.4 0-40.1 32.8-72.5 73.3-72.5 40.5 0 73.3 32.4 73.3 72.5 0 40-32.8 72.4-73.3 72.4z"/>
		</g>
	</g>
</svg>